<svg width="62" height="18" viewBox="0 0 62 18" fill="none" xmlns="http://www.w3.org/2000/svg">
<g id="Mobil_logo_color_b 2" clip-path="url(#clip0_284_100)">
<path id="Vector" d="M18.665 11.1739C18.665 7.39684 21.6392 4.34766 25.2807 4.34766C28.9412 4.34766 31.8963 7.41651 31.8963 11.1739C31.8963 14.9509 28.9221 18.0001 25.2807 18.0001C21.6201 18.0001 18.665 14.9509 18.665 11.1739ZM25.2807 14.3018C26.9584 14.3018 28.312 12.905 28.312 11.1739C28.312 9.44274 26.9584 8.04602 25.2807 8.04602C23.6029 8.04602 22.2493 9.44274 22.2493 11.1739C22.2302 12.905 23.5839 14.3018 25.2807 14.3018Z" fill="#ED1B2D"/>
<path id="Vector_2" d="M57.2717 0H53.7065V17.6262H57.2717V0Z" fill="white"/>
<g id="Group">
<path id="Vector_3" d="M51.7239 0H48.1587V3.48197H51.7239V0Z" fill="white"/>
<path id="Vector_4" d="M51.7239 4.72119H48.1587V17.6261H51.7239V4.72119Z" fill="white"/>
</g>
<path id="Vector_5" d="M40.3612 4.42623C39.0647 4.42623 37.9399 4.83934 36.9485 5.72459V0H33.3833V17.6262H36.9485V16.4852C37.8636 17.5279 39.0266 17.9213 40.3612 17.9213C43.9454 17.9213 46.6717 14.8131 46.6717 11.1934C46.6717 7.57377 43.9835 4.42623 40.3612 4.42623ZM40.018 14.3016C38.3402 14.3016 36.9866 12.9049 36.9866 11.1738C36.9866 9.44262 38.3402 8.0459 40.018 8.0459C41.6957 8.0459 43.0494 9.44262 43.0494 11.1738C43.0494 12.9049 41.6957 14.3016 40.018 14.3016Z" fill="white"/>
<path id="Vector_6" d="M17.3302 0V17.6262H13.7841V5.1541H13.7269L10.3142 17.6262H7.03499L3.67951 5.1541H3.62232V17.6262H0.0571289V0H5.6051L8.73179 10.8197H8.76992L11.9538 0H17.3302Z" fill="white"/>
<g id="Group_2">
<path id="Vector_7" d="M58.6445 0.373874H59.1593V1.77059H59.5406V0.373874H60.0554V0.0197754H58.6445V0.373874Z" fill="white"/>
<path id="Vector_8" d="M61.4091 0.0197754L61.085 1.08207L60.7799 0.0197754H60.2271V1.75092H60.5893V0.531251L60.9134 1.75092H61.2375L61.5807 0.531251V1.75092H61.9239V0.0197754H61.4091Z" fill="white"/>
</g>
</g>
<defs>
<clipPath id="clip0_284_100">
<rect width="62" height="18" fill="white"/>
</clipPath>
</defs>
</svg>
